# xmcd CD database file
#
# Track frame offsets:
#	150
#	19244
#	43215
#	60842
#	96866
#	123683
#	150500
#	172760
#	194780
#	211374
#	238209
#	259309
#
# Disc length: 3684 seconds
#
# Revision: 0
# Processed by: cddbd v1.5.2PL0 Copyright (c) Steve Scherf et al.
# Submitted via: jetAudio 7
#
DISCID=aa0e620c
DTITLE=Sacré Coeur de Jésus - Unknown Album
DYEAR=1900
DGENRE=Réligieux
TTITLE0=Avec toi Sgr
TTITLE1=Qui est comme toi
TTITLE2=Je désire
TTITLE3=Viens
TTITLE4=J'ai foi en toi
TTITLE5=Dans ta présence
TTITLE6=Fils de même père
TTITLE7=Je veux voir ta gloire
TTITLE8=Le soupir de mon âme
TTITLE9=Tu n'as pas changé
TTITLE10=Mokale pote
TTITLE11=Il est le potier
EXTD=
EXTT0=
EXTT1=
EXTT2=
EXTT3=
EXTT4=
EXTT5=
EXTT6=
EXTT7=
EXTT8=
EXTT9=
EXTT10=
EXTT11=
PLAYORDER=
